<svg xmlns="http://www.w3.org/2000/svg" viewBox="0 0 512 512">
  <defs>
    <linearGradient id="bg" x1="0%" y1="0%" x2="100%" y2="100%">
      <stop offset="0%" style="stop-color:#3b82f6"/>
      <stop offset="100%" style="stop-color:#1d4ed8"/>
    </linearGradient>
  </defs>
  <rect width="512" height="512" rx="96" fill="url(#bg)"/>
  <g fill="white">
    <!-- Book shape -->
    <path d="M128 96 C128 80 140 72 156 72 L356 72 C372 72 384 80 384 96 L384 416 C384 432 372 440 356 440 L156 440 C140 440 128 432 128 416 Z" fill="white" opacity="0.95"/>
    <!-- Book spine -->
    <rect x="128" y="72" width="32" height="368" fill="#e5e7eb"/>
    <!-- Book lines -->
    <rect x="180" y="120" width="160" height="12" rx="6" fill="#94a3b8"/>
    <rect x="180" y="152" width="140" height="12" rx="6" fill="#94a3b8"/>
    <rect x="180" y="184" width="120" height="12" rx="6" fill="#94a3b8"/>
    <!-- Bookmark -->
    <path d="M320 72 L320 160 L340 140 L360 160 L360 72 Z" fill="#ef4444"/>
  </g>
</svg>
